<svg viewBox="0 0 15 15" fill="none" xmlns="http://www.w3.org/2000/svg">
<path d="M9.7206 8.12305L8.46432 9.38357C7.95487 9.8948 7.05851 9.90582 6.53805 9.38357L5.28171 8.12305L0.769531 12.6499C0.93749 12.7275 1.12268 12.7739 1.31955 12.7739H13.6828C13.8797 12.7739 14.0648 12.7276 14.2327 12.6499L9.7206 8.12305Z" fill="#151516"/>
<path d="M13.6828 2.22656H1.31949C1.12262 2.22656 0.937432 2.27291 0.769531 2.35058L5.59113 7.18816C5.59145 7.18849 5.59183 7.18855 5.59215 7.18887C5.59247 7.18919 5.59253 7.18963 5.59253 7.18963L7.1603 8.76258C7.32682 8.9291 7.67551 8.9291 7.84203 8.76258L9.40948 7.18989C9.40948 7.18989 9.40986 7.18919 9.41018 7.18887C9.41018 7.18887 9.41088 7.18849 9.41121 7.18816L14.2327 2.35055C14.0648 2.27285 13.8797 2.22656 13.6828 2.22656Z" fill="#151516"/>
<path d="M0.140215 2.96484C0.0533203 3.14057 0 3.33562 0 3.54457V11.4547C0 11.6637 0.0532617 11.8587 0.140186 12.0344L4.6602 7.49979L0.140215 2.96484Z" fill="#151516"/>
<path d="M14.8598 2.96484L10.3398 7.49986L14.8598 12.0346C14.9467 11.8589 15 11.6638 15 11.4548V3.54463C15 3.33563 14.9467 3.14057 14.8598 2.96484Z" fill="#151516"/>
</svg>
