<svg viewBox="0 0 19 19" fill="none" xmlns="http://www.w3.org/2000/svg">
<rect width="19" height="19" rx="9.5" fill="#3E549B"/>
<path d="M7.67053 10.1446C7.62877 10.1446 6.70998 10.1446 6.29234 10.1446C6.06961 10.1446 6 10.0695 6 9.88173C6 9.3811 6 8.86796 6 8.36733C6 8.16708 6.08353 8.10451 6.29234 8.10451H7.67053C7.67053 8.06696 7.67053 7.34105 7.67053 7.00313C7.67053 6.5025 7.76798 6.02691 8.0464 5.58886C8.33875 5.1383 8.75638 4.83792 9.28538 4.6627C9.63341 4.55006 9.98144 4.5 10.3573 4.5H11.7216C11.9165 4.5 12 4.57509 12 4.75031V6.1771C12 6.35232 11.9165 6.42741 11.7216 6.42741C11.3457 6.42741 10.9698 6.42741 10.594 6.43992C10.2181 6.43992 10.0232 6.60263 10.0232 6.95307C10.0093 7.32854 10.0232 7.69149 10.0232 8.07947H11.6381C11.8608 8.07947 11.9443 8.15457 11.9443 8.35482V9.86921C11.9443 10.0695 11.8747 10.132 11.6381 10.132C11.1369 10.132 10.065 10.132 10.0232 10.132V14.2121C10.0232 14.4249 9.9536 14.5 9.70302 14.5C9.11833 14.5 8.54756 14.5 7.96288 14.5C7.75406 14.5 7.67053 14.4249 7.67053 14.2372C7.67053 12.923 7.67053 10.1821 7.67053 10.1446Z" fill="white"/>
</svg>
