<svg viewBox="0 0 20 19" fill="none" xmlns="http://www.w3.org/2000/svg">
<path d="M9.55688 19C14.835 19 19.1138 14.7467 19.1138 9.5C19.1138 4.25329 14.835 0 9.55688 0C4.27876 0 0 4.25329 0 9.5C0 14.7467 4.27876 19 9.55688 19Z" fill="#007AB9"/>
<path d="M15.2651 10.2648V14.1814H12.9807V10.5273C12.9807 9.60973 12.6509 8.98315 11.8238 8.98315C11.1926 8.98315 10.8177 9.40499 10.6521 9.81345C10.5919 9.95943 10.5764 10.1621 10.5764 10.3669V14.1812H8.29189C8.29189 14.1812 8.32255 7.9923 8.29189 7.35167H10.5766V8.31948C10.572 8.3271 10.5655 8.33455 10.5614 8.34183H10.5766V8.31948C10.8802 7.85513 11.4216 7.19129 12.6354 7.19129C14.1383 7.19129 15.2651 8.16741 15.2651 10.2648ZM5.90207 4.05957C5.12063 4.05957 4.60938 4.56947 4.60938 5.23941C4.60938 5.89512 5.10581 6.41975 5.87209 6.41975H5.88691C6.68368 6.41975 7.17909 5.89512 7.17909 5.23941C7.16393 4.56947 6.68368 4.05957 5.90207 4.05957ZM4.74515 14.1814H7.02883V7.35167H4.74515V14.1814Z" fill="#F1F2F2"/>
</svg>
