<svg viewBox="0 0 19 19" fill="none" xmlns="http://www.w3.org/2000/svg">
<circle cx="9.5" cy="9.5" r="9.5" fill="url(#paint0_linear_8128_487)"/>
<path d="M9.5039 8C8.6768 8 8.00391 8.6729 8.00391 9.49999C8.00391 10.3271 8.6768 11 9.5039 11C10.331 11 11.0039 10.3271 11.0039 9.50001C11.0039 8.67291 10.331 8 9.5039 8Z" fill="white"/>
<path d="M11.9845 4.00098H7.01548C5.35274 4.00098 4 5.35372 4 7.01648V11.9855C4 13.6483 5.35274 15.001 7.01548 15.001H11.9845C13.6473 15.001 15 13.6482 15 11.9855V7.01648C15 5.35372 13.6473 4.00098 11.9845 4.00098ZM9.5 12.5181C7.83636 12.5181 6.48293 11.1646 6.48293 9.50098C6.48293 7.83733 7.83638 6.48393 9.5 6.48393C11.1636 6.48393 12.5171 7.83736 12.5171 9.50098C12.5171 11.1646 11.1636 12.5181 9.5 12.5181ZM12.6975 7.22011C12.1921 7.22011 11.7809 6.8089 11.7809 6.30346C11.7809 5.79802 12.1921 5.38678 12.6975 5.38678C13.203 5.38678 13.6142 5.79799 13.6142 6.30344C13.6142 6.80888 13.203 7.22011 12.6975 7.22011Z" fill="white"/>
<defs>
<linearGradient id="paint0_linear_8128_487" x1="9.5" y1="0" x2="9.5" y2="19" gradientUnits="userSpaceOnUse">
<stop stop-color="#6B5CC0"/>
<stop offset="0.505" stop-color="#BF4274"/>
<stop offset="1" stop-color="#F5C372"/>
</linearGradient>
</defs>
</svg>
