<svg viewBox="0 0 16 16" fill="none" xmlns="http://www.w3.org/2000/svg">
<g clip-path="url(#clip0_8128_452)">
<path d="M10.0413 13.3948C9.64087 14.4337 9.13757 15.3087 8.5592 15.9796C8.36926 15.993 8.1781 16 7.98596 16C7.7937 16 7.60254 15.993 7.41272 15.9796C6.83423 15.3087 6.33093 14.4338 5.93066 13.3948C5.80139 13.0593 5.68518 12.7115 5.58203 12.3536H10.3899C10.2866 12.7115 10.1704 13.0593 10.0413 13.3948Z" fill="black"/>
<path d="M5.34656 4.58386H10.6248C10.8265 5.52161 10.9437 6.51404 10.9713 7.53125H5C5.02759 6.51392 5.14478 5.52161 5.34656 4.58386Z" fill="black"/>
<path d="M10.6248 11.416H5.34656C5.14478 10.4783 5.02759 9.48584 5 8.46863H10.9713C10.9437 9.48596 10.8265 10.4783 10.6248 11.416Z" fill="black"/>
<path d="M5.93054 2.60535C6.33093 1.56641 6.83423 0.691406 7.4126 0.0205083C7.60254 0.00708055 7.7937 0.000122547 7.98596 0.000122547C8.1781 0.000122547 8.36926 0.00708055 8.5592 0.0205083C9.13757 0.691406 9.64087 1.56628 10.0411 2.60535C10.1704 2.9408 10.2866 3.28857 10.3898 3.64648H5.58203C5.68518 3.28857 5.80139 2.9408 5.93054 2.60535Z" fill="black"/>
<path d="M11.582 11.4163C11.7711 10.4802 11.8839 9.48926 11.9104 8.46887H15.973C15.9137 9.50293 15.6588 10.5001 15.2252 11.417C15.2207 11.4169 15.2163 11.4163 15.2118 11.4163H11.582Z" fill="black"/>
<path d="M4.39111 4.58386C4.2019 5.5199 4.08911 6.51086 4.06262 7.53125H0C0.0593262 6.49719 0.314209 5.5 0.747803 4.58313C0.752319 4.58325 0.756714 4.58386 0.76123 4.58386H4.39111Z" fill="black"/>
<path d="M11.3629 3.64648C11.0139 2.34509 10.5105 1.17847 9.88281 0.225098C11.2953 0.566651 12.5911 1.28967 13.6447 2.34326C14.0461 2.74475 14.3992 3.18164 14.7019 3.64648H11.3629Z" fill="black"/>
<path d="M4.61243 12.354C4.96155 13.6554 5.46484 14.822 6.09253 15.7754C4.68018 15.4338 3.38428 14.7108 2.33057 13.6572C1.9292 13.2557 1.57617 12.8188 1.27344 12.354H4.61243Z" fill="black"/>
<path d="M4.61243 3.64648H1.27344C1.57617 3.18164 1.9292 2.74475 2.33057 2.34326C3.38428 1.28967 4.68005 0.566651 6.09241 0.225098C5.46484 1.17847 4.96155 2.34509 4.61243 3.64648Z" fill="black"/>
<path d="M11.3629 12.354H14.7019C14.3992 12.8188 14.0463 13.2557 13.6448 13.6572C12.5911 14.7108 11.2953 15.4338 9.88281 15.7754C10.5105 14.822 11.0139 13.6554 11.3629 12.354Z" fill="black"/>
<path d="M11.9104 7.53125C11.8839 6.51086 11.7712 5.5199 11.582 4.58386H15.2118C15.2163 4.58386 15.2207 4.58325 15.2252 4.58313C15.6588 5.5 15.9137 6.49719 15.973 7.53125H11.9104Z" fill="black"/>
<path d="M4.06262 8.46887C4.08911 9.48926 4.2019 10.4802 4.39111 11.4163H0.76123C0.756714 11.4163 0.752319 11.4169 0.747803 11.417C0.314209 10.5001 0.0593262 9.50293 0 8.46887H4.06262Z" fill="black"/>
</g>
<defs>
<clipPath id="clip0_8128_452">
<rect width="16" height="16" fill="white" transform="matrix(1 0 0 -1 0 16)"/>
</clipPath>
</defs>
</svg>
