<svg viewBox="0 0 14 14" fill="none" xmlns="http://www.w3.org/2000/svg">
<path d="M11.7854 8.34543C11.4798 8.02868 11.1112 7.85932 10.7206 7.85932C10.3331 7.85932 9.9614 8.02554 9.64323 8.34229L8.64775 9.3302C8.56585 9.28629 8.48394 9.24552 8.40518 9.20475C8.29178 9.1483 8.18467 9.09498 8.09331 9.03853C7.16084 8.44892 6.31343 7.68056 5.50067 6.68638C5.10689 6.19086 4.84227 5.77375 4.65011 5.35036C4.90843 5.11514 5.14784 4.87052 5.38096 4.6353C5.46917 4.54749 5.55737 4.45654 5.64558 4.36873C6.30713 3.71013 6.30713 2.85708 5.64558 2.19848L4.78557 1.34229C4.68791 1.24507 4.5871 1.14471 4.49259 1.04436C4.30358 0.849911 4.10512 0.649194 3.90035 0.461022C3.59478 0.159946 3.22935 0 2.84502 0C2.46069 0 2.08897 0.159946 1.77394 0.461022C1.77079 0.464158 1.77079 0.464158 1.76764 0.467294L0.696563 1.54301C0.293334 1.94444 0.0633665 2.43369 0.0129627 3.00134C-0.0626429 3.91712 0.208277 4.77016 0.416193 5.3284C0.92653 6.69892 1.68889 7.96909 2.82612 9.3302C4.20592 10.9704 5.8661 12.2657 7.76254 13.1783C8.48709 13.5202 9.45421 13.9247 10.5347 13.9937C10.6009 13.9969 10.6702 14 10.7332 14C11.4609 14 12.0721 13.7397 12.5509 13.2222C12.554 13.2159 12.5603 13.2128 12.5635 13.2065C12.7273 13.009 12.9163 12.8302 13.1148 12.6389C13.2502 12.5103 13.3889 12.3754 13.5243 12.2343C13.8362 11.9113 14 11.5349 14 11.1492C14 10.7603 13.833 10.3871 13.5149 10.0735L11.7854 8.34543Z" fill="#151516"/>
</svg>
