<svg viewBox="0 0 19 19" fill="none" xmlns="http://www.w3.org/2000/svg">
<g clip-path="url(#clip0_8128_475)">
<path d="M9.49983 18.9997C14.7464 18.9997 18.9997 14.7464 18.9997 9.49983C18.9997 4.25322 14.7464 0 9.49983 0C4.25322 0 0 4.25322 0 9.49983C0 14.7464 4.25322 18.9997 9.49983 18.9997Z" fill="#CB2027"/>
<path d="M10.266 12.7209C9.54779 12.6653 9.24602 12.3092 8.68278 11.9673C8.37322 13.5915 7.99491 15.1484 6.87436 15.9618C6.52806 13.507 7.38206 11.6631 7.77866 9.70604C7.10264 8.56805 7.85994 6.27751 9.28582 6.84194C11.0407 7.53591 7.76647 11.0733 9.96454 11.5151C12.2593 11.9764 13.1961 7.53337 11.773 6.08819C9.71679 4.00171 5.78786 6.04077 6.27099 9.02765C6.38869 9.75786 7.14328 9.97953 6.57243 10.9871C5.25646 10.6957 4.86392 9.65778 4.91438 8.27407C4.99584 6.00911 6.94955 4.4232 8.9092 4.20373C11.3875 3.92635 13.7136 5.11379 14.0347 7.44497C14.3959 10.0761 12.9159 12.9254 10.266 12.7209Z" fill="#F1F2F2"/>
</g>
<defs>
<clipPath id="clip0_8128_475">
<rect width="19" height="19" fill="white"/>
</clipPath>
</defs>
</svg>
