<svg viewBox="0 0 19 19" fill="none" xmlns="http://www.w3.org/2000/svg">
<g clip-path="url(#clip0_8128_482)">
<path d="M9.5 0C4.25411 0 0 4.25411 0 9.5C0 14.7459 4.25411 19 9.5 19C14.7459 19 19 14.7459 19 9.5C19 4.25411 14.7459 0 9.5 0ZM14.266 7.26872V8.55505C13.6594 8.55527 13.0701 8.43641 12.5142 8.20191C12.1568 8.05103 11.8239 7.85661 11.5193 7.62167L11.5284 11.581C11.5246 12.4725 11.1719 13.3102 10.5335 13.9412C10.014 14.4548 9.35564 14.7814 8.64211 14.8871C8.47445 14.9119 8.30382 14.9246 8.13126 14.9246C7.36744 14.9246 6.64228 14.6772 6.04909 14.2207C5.93746 14.1347 5.8307 14.0416 5.72906 13.9412C5.03719 13.2574 4.68042 12.3306 4.7405 11.3556C4.78633 10.6135 5.08346 9.90568 5.5788 9.35093C6.23415 8.61683 7.15098 8.20937 8.13126 8.20937C8.30382 8.20937 8.47445 8.22232 8.64211 8.24715V8.72274V10.0458C8.48313 9.99333 8.31335 9.9645 8.13656 9.9645C7.24097 9.9645 6.51641 10.6952 6.5298 11.5914C6.5383 12.1649 6.85154 12.6662 7.31355 12.9425C7.53068 13.0724 7.78046 13.1528 8.04702 13.1674C8.25587 13.1789 8.45641 13.1498 8.64211 13.0885C9.28198 12.8771 9.74359 12.2761 9.74359 11.5673L9.7457 8.9159V4.07535H11.5172C11.5189 4.25088 11.5367 4.42214 11.5698 4.58809C11.7035 5.25981 12.0821 5.84257 12.6091 6.23987C13.0685 6.58643 13.6407 6.79187 14.2608 6.79187C14.2612 6.79187 14.2664 6.79187 14.2659 6.79146V7.26872H14.266Z" fill="black"/>
</g>
<defs>
<clipPath id="clip0_8128_482">
<rect width="19" height="19" fill="white"/>
</clipPath>
</defs>
</svg>
