<svg viewBox="0 0 20 19" fill="none" xmlns="http://www.w3.org/2000/svg">
<path d="M9.55688 19C14.835 19 19.1138 14.7467 19.1138 9.5C19.1138 4.25329 14.835 0 9.55688 0C4.27876 0 0 4.25329 0 9.5C0 14.7467 4.27876 19 9.55688 19Z" fill="#007AB9"/>
<path d="M15.2651 10.2648V14.1814H12.9807V10.5273C12.9807 9.60973 12.6509 8.98315 11.8238 8.98315C11.1926 8.98315 10.8177 9.40499 10.6521 9.81345C10.5919 9.95943 10.5764 10.1621 10.5764 10.3669V14.1812H8.29189C8.29189 14.1812 8.32255 7.9923 8.29189 7.35167H10.5766V8.31948C10.572 8.3271 10.5655 8.33455 10.5614 8.34183H10.5766V8.31948C10.8802 7.85513 11.4216 7.19129 12.6354 7.19129C14.1383 7.19129 15.2651 8.16741 15.2651 10.2648ZM5.90207 4.05957C5.12063 4.05957 4.60938 4.56947 4.60938 5.23941C4.60938 5.89512 5.10581 6.41975 5.87209 6.41975H5.88691C6.68368 6.41975 7.17909 5.89512 7.17909 5.23941C7.16393 4.56947 6.68368 4.05957 5.90207 4.05957ZM4.74515 14.1814H7.02883V7.35167H4.74515V14.1814Z" fill="#F1F2F2"/>
<g clip-path="url(#clip0_8128_510)">
<path d="M9.5 19C14.7467 19 19 14.7467 19 9.5C19 4.25329 14.7467 0 9.5 0C4.25329 0 0 4.25329 0 9.5C0 14.7467 4.25329 19 9.5 19Z" fill="#3D5A70"/>
<path d="M7.53627 8.59125H6.42377C6.42377 8.545 6.42377 7.6875 6.42377 7.29625C6.41809 7.26305 6.42527 7.22894 6.44385 7.20084C6.46242 7.17275 6.491 7.15278 6.52377 7.145C7.81877 6.75875 8.43627 4.84375 8.44252 4.625C8.44252 4.53875 8.49377 4.5 8.57752 4.5C8.97085 4.5 9.36544 4.5 9.76127 4.5C9.85502 4.5 9.87752 4.5325 9.87627 4.625V7.025H12.2363V8.59H9.90627C9.90627 8.62125 9.88252 11.965 9.90627 12.1213C9.92652 12.238 9.9732 12.3486 10.0427 12.4446C10.1123 12.5406 10.2029 12.6194 10.3075 12.675C10.6825 12.9 11.0825 12.9137 11.4963 12.84C11.84 12.78 12.5313 12.4325 12.5763 12.4075V13.8525C12.5796 13.8862 12.5712 13.92 12.5525 13.9482C12.5338 13.9764 12.506 13.9973 12.4738 14.0075C11.7003 14.3807 10.8431 14.5466 9.98627 14.4888C9.24502 14.44 8.56877 14.2275 8.02877 13.6812C7.74877 13.3962 7.53627 13.0775 7.53627 12.6587V8.59125Z" fill="white"/>
</g>
<defs>
<clipPath id="clip0_8128_510">
<rect width="19" height="19" fill="white"/>
</clipPath>
</defs>
</svg>
