<svg viewBox="0 0 14 14" fill="none" xmlns="http://www.w3.org/2000/svg">
<path d="M14 6.99304C14.0002 6.84018 13.9662 6.68923 13.9004 6.55128C13.8347 6.41334 13.7388 6.29191 13.62 6.19595L12.7182 5.44384L13.1311 4.36802C13.1847 4.22536 13.206 4.0726 13.1935 3.92071C13.181 3.76883 13.135 3.6216 13.0589 3.48964C12.9827 3.35767 12.8783 3.24425 12.7532 3.15752C12.628 3.0708 12.4852 3.01294 12.335 2.9881L11.1782 2.78809L10.9985 1.64966C10.9737 1.49927 10.9159 1.35626 10.8293 1.23092C10.7426 1.10558 10.6293 1.00104 10.4975 0.924808C10.3656 0.848579 10.2185 0.802563 10.0668 0.790073C9.91509 0.777584 9.76248 0.798931 9.61998 0.852578L8.51838 1.25895L7.79432 0.363087C7.69528 0.249086 7.57296 0.157683 7.43563 0.0950475C7.29829 0.0324116 7.14913 0 6.99822 0C6.84731 0 6.69815 0.0324116 6.56082 0.0950475C6.42348 0.157683 6.30117 0.249086 6.20212 0.363087L5.45093 1.26579L4.37671 0.852578C4.23419 0.79889 4.08156 0.77751 3.9298 0.78998C3.77805 0.802449 3.63094 0.848456 3.49907 0.924689C3.36721 1.00092 3.25387 1.10548 3.16721 1.23084C3.08056 1.3562 3.02274 1.49924 2.99794 1.64966L2.79843 2.80812L1.66191 2.9876C1.51167 3.01245 1.36881 3.07034 1.24359 3.15709C1.11838 3.24384 1.01392 3.35731 0.937745 3.48932C0.861569 3.62133 0.815563 3.7686 0.803039 3.92054C0.790516 4.07249 0.811784 4.22532 0.865316 4.36805L1.27118 5.47125L0.375956 6.19595C0.258361 6.29277 0.163655 6.41448 0.0986487 6.55232C0.0336428 6.69017 -4.7772e-05 6.84072 5.08411e-08 6.99315C4.78737e-05 7.14559 0.0338328 7.29612 0.0989252 7.43392C0.164018 7.57173 0.2588 7.69337 0.376457 7.79012L1.2783 8.54223L0.865316 9.61802C0.811773 9.76068 0.790482 9.91346 0.802975 10.0653C0.815468 10.2172 0.861435 10.3645 0.937568 10.4964C1.0137 10.6284 1.1181 10.7418 1.24327 10.8286C1.36843 10.9153 1.51124 10.9732 1.66142 10.998L2.81821 11.198L2.99794 12.3364C3.02281 12.4868 3.08065 12.6298 3.1673 12.7551C3.25395 12.8804 3.36726 12.9849 3.49908 13.0611C3.6309 13.1373 3.77795 13.1833 3.92966 13.1959C4.08137 13.2084 4.23396 13.1871 4.37647 13.1335L5.47807 12.7271L6.20213 13.623C6.29873 13.7409 6.42023 13.8358 6.5579 13.901C6.69556 13.9662 6.84594 14 6.99823 14C7.15051 14 7.3009 13.9662 7.43856 13.901C7.57622 13.8358 7.69773 13.7409 7.79433 13.623L8.54552 12.7203L9.61979 13.1335C9.76231 13.1872 9.91493 13.2085 10.0667 13.196C10.2184 13.1836 10.3655 13.1376 10.4974 13.0613C10.6293 12.9851 10.7426 12.8805 10.8293 12.7552C10.9159 12.6298 10.9737 12.4868 10.9986 12.3364L11.1981 11.178L12.3346 10.9985C12.4848 10.9736 12.6277 10.9157 12.7529 10.829C12.8781 10.7422 12.9826 10.6288 13.0588 10.4968C13.1349 10.3647 13.1809 10.2175 13.1935 10.0655C13.206 9.91359 13.1847 9.76075 13.1312 9.61802L12.7253 8.51482L13.6205 7.79012C13.7392 7.69406 13.8349 7.5726 13.9006 7.43467C13.9662 7.29674 14.0002 7.14583 14 6.99304Z" fill="#0A39D6"/>
<path d="M6.13205 9.99999C5.83394 10.0008 5.54369 9.89861 5.30522 9.70892L4.18452 8.81755C4.08662 8.73965 4.02191 8.62371 4.00463 8.49522C3.98734 8.36673 4.0189 8.23622 4.09235 8.13241C4.16581 8.02859 4.27515 7.95997 4.39631 7.94164C4.51748 7.92331 4.64055 7.95678 4.73845 8.03467L5.85891 8.92604C5.95604 9.0022 6.07732 9.03526 6.19704 9.01822C6.31676 9.00118 6.42553 8.93538 6.50028 8.83475L9.17391 5.18896C9.21114 5.13822 9.25743 5.09574 9.31014 5.06397C9.36285 5.03219 9.42094 5.01174 9.4811 5.00377C9.54127 4.99581 9.60232 5.00048 9.66078 5.01754C9.71924 5.03459 9.77395 5.06369 9.82181 5.10317C9.86966 5.14265 9.90971 5.19174 9.93968 5.24763C9.96964 5.30353 9.98893 5.36513 9.99644 5.42893C10.004 5.49273 9.99954 5.55747 9.98346 5.61946C9.96738 5.68145 9.93994 5.73948 9.90271 5.79022L7.22886 9.43602C7.09856 9.61233 6.93203 9.75478 6.74196 9.85251C6.55189 9.95024 6.34328 10.0007 6.13205 9.99999Z" fill="#F5F5F5"/>
</svg>
