<svg viewBox="0 0 20 19" fill="none" xmlns="http://www.w3.org/2000/svg">
<g clip-path="url(#clip0_8128_494)">
<path d="M9.5 19C14.7467 19 19 14.7467 19 9.5C19 4.25329 14.7467 0 9.5 0C4.25329 0 0 4.25329 0 9.5C0 14.7467 4.25329 19 9.5 19Z" fill="#FF0000"/>
<path d="M12.6088 5.92578H6.39125C6.14278 5.92578 5.89675 5.97474 5.66721 6.06986C5.43767 6.16499 5.22913 6.30441 5.05349 6.48016C4.87786 6.65591 4.73857 6.86455 4.6436 7.09415C4.54863 7.32375 4.49984 7.56981 4.5 7.81828V11.1808C4.49984 11.4292 4.54863 11.6753 4.6436 11.9049C4.73857 12.1345 4.87786 12.3432 5.05349 12.5189C5.22913 12.6947 5.43767 12.8341 5.66721 12.9292C5.89675 13.0243 6.14278 13.0733 6.39125 13.0733H12.6088C12.8572 13.0733 13.1033 13.0243 13.3328 12.9292C13.5623 12.8341 13.7709 12.6947 13.9465 12.5189C14.1221 12.3432 14.2614 12.1345 14.3564 11.9049C14.4514 11.6753 14.5002 11.4292 14.5 11.1808V7.81828C14.5002 7.56981 14.4514 7.32375 14.3564 7.09415C14.2614 6.86455 14.1221 6.65591 13.9465 6.48016C13.7709 6.30441 13.5623 6.16499 13.3328 6.06986C13.1033 5.97474 12.8572 5.92578 12.6088 5.92578ZM8.1825 11.032V7.96703L10.8175 9.49953L8.1825 11.032Z" fill="white"/>
</g>
<defs>
<clipPath id="clip0_8128_494">
<rect width="19" height="19" fill="white"/>
</clipPath>
</defs>
</svg>
